<?xml version="1.0" encoding="utf-8"?>
<!-- Generator: Adobe Illustrator 23.0.3, SVG Export Plug-In . SVG Version: 6.00 Build 0)  -->
<svg version="1.1" id="Layer_1" xmlns="http://www.w3.org/2000/svg" xmlns:xlink="http://www.w3.org/1999/xlink" x="0px" y="0px"
	 viewBox="0 0 50 50" style="enable-background:new 0 0 50 50;" xml:space="preserve">
<path style="fill:none;stroke:#000000;stroke-width:2;stroke-linecap:round;stroke-miterlimit:10;" d="M47,8c0,0-27.6,0-29,0
	c-1.5,0-2.5-4-4-4H3C1.9,4,1,4.9,1,6v4v30v4c0,1.1,0.9,2,2,2h44c1.1,0,2-0.9,2-2V10C49,8.9,48.1,8,47,8z"/>
<path style="fill:none;stroke:#000000;stroke-width:2;stroke-linecap:round;stroke-miterlimit:10;" d="M1,27V16c0-1.1,0.9-2,2-2h44
	c1.1,0,2,0.9,2,2v11"/>
</svg>
