<?xml version="1.0" encoding="utf-8"?>
<!-- Generator: Adobe Illustrator 23.0.3, SVG Export Plug-In . SVG Version: 6.00 Build 0)  -->
<svg version="1.1" id="Layer_1" xmlns="http://www.w3.org/2000/svg" xmlns:xlink="http://www.w3.org/1999/xlink" x="0px" y="0px"
	 viewBox="0 0 50 50" style="enable-background:new 0 0 50 50;" xml:space="preserve">
<polyline style="fill:none;stroke:#000000;stroke-width:2;stroke-miterlimit:10;" points="31,28 25,34 19,28 "/>
<polyline style="fill:none;stroke:#000000;stroke-width:2;stroke-miterlimit:10;" points="31,28 25,34 19,28 "/>
<line style="fill:none;stroke:#000000;stroke-width:2;stroke-linejoin:round;stroke-miterlimit:10;" x1="25" y1="20" x2="25" y2="34"/>
<path style="fill:none;stroke:#000000;stroke-width:2;stroke-linecap:round;stroke-miterlimit:10;" d="M43,24.3c0-0.1,0-0.2,0-0.3
	c0-5.5-4.5-10-10-10c-1.2,0-2.3,0.2-3.4,0.6C27.7,11.3,24.1,9,20,9C13.9,9,9,13.9,9,20c0,0.1,0,0.1,0,0.2c-4.6,0.9-8,5-8,9.8
	c0,5.5,4.5,10,10,10c5.2,0,26.3,0,30,0c4.4,0,8-3.6,8-8C49,28.3,46.4,25.1,43,24.3z"/>
</svg>
