<?xml version="1.0" encoding="utf-8"?>
<!-- Generator: Adobe Illustrator 23.0.3, SVG Export Plug-In . SVG Version: 6.00 Build 0)  -->
<svg version="1.1" id="Layer_1" xmlns="http://www.w3.org/2000/svg" xmlns:xlink="http://www.w3.org/1999/xlink" x="0px" y="0px"
	 viewBox="0 0 50 50" style="enable-background:new 0 0 50 50;" xml:space="preserve">
<rect style="fill:none;" width="50" height="50"/>
<g>
	<path d="M15.5,18.7H4.1c0-1.4,0.4-2.6,1-3.6c0.7-1,1.6-1.9,2.7-2.7c0.5-0.4,1.1-0.8,1.7-1.2c0.6-0.4,1.1-0.8,1.6-1.2
		c0.5-0.4,0.9-0.9,1.2-1.4c0.3-0.5,0.5-1.1,0.5-1.7c0-0.3,0-0.6-0.1-1c-0.1-0.3-0.2-0.7-0.4-1s-0.5-0.5-0.9-0.7S10.6,3.9,10,3.9
		C9.4,3.9,9,4,8.6,4.2C8.3,4.4,8,4.7,7.8,5.1C7.5,5.5,7.4,5.9,7.3,6.4C7.2,6.9,7.1,7.5,7.1,8.1H4.4c0-0.9,0.1-1.8,0.4-2.6
		S5.4,4,5.9,3.4c0.5-0.6,1.1-1,1.8-1.4s1.5-0.5,2.5-0.5c1,0,1.9,0.2,2.6,0.5c0.7,0.3,1.2,0.8,1.7,1.3c0.4,0.5,0.7,1.1,0.9,1.7
		c0.2,0.6,0.3,1.2,0.3,1.7c0,0.7-0.1,1.3-0.3,1.8c-0.2,0.5-0.5,1-0.8,1.5c-0.4,0.5-0.8,0.9-1.2,1.3c-0.4,0.4-0.9,0.7-1.4,1.1
		c-0.5,0.3-1,0.7-1.4,1C9.9,13.7,9.4,14,9,14.3c-0.4,0.3-0.8,0.6-1.1,0.9c-0.3,0.3-0.5,0.7-0.6,1h8.2V18.7z"/>
	<path d="M4.4,33.5c0.6,0,1.1,0,1.7-0.1s1-0.3,1.5-0.5C8,32.7,8.4,32.4,8.7,32c0.3-0.4,0.5-0.8,0.6-1.3h2.2v16.8h-3V35.7H4.4V33.5z"
		/>
</g>
<polyline style="fill:none;stroke:#000000;stroke-width:2;stroke-linecap:round;stroke-miterlimit:10;" points="48.9,32.1 40,40.9 
	31.1,32.1 "/>
<line style="fill:none;stroke:#000000;stroke-width:2;stroke-linecap:round;stroke-miterlimit:10;" x1="40" y1="9" x2="40" y2="40.4"/>
</svg>
