<?xml version="1.0" encoding="utf-8"?>
<!-- Generator: Adobe Illustrator 23.0.3, SVG Export Plug-In . SVG Version: 6.00 Build 0)  -->
<svg version="1.1" id="Layer_1" xmlns="http://www.w3.org/2000/svg" xmlns:xlink="http://www.w3.org/1999/xlink" x="0px" y="0px"
	 viewBox="0 0 50 50" style="enable-background:new 0 0 50 50;" xml:space="preserve">
<polygon points="28,47 22,47 22,37.8 24,37.8 24,45 26,45 26,37.8 28,37.8 "/>
<rect x="28" y="11" width="6.3" height="2"/>
<rect x="28" y="15" width="6.3" height="2"/>
<rect x="28" y="19" width="6.3" height="2"/>
<rect x="15.7" y="11" width="6.3" height="2"/>
<rect x="15.7" y="15" width="6.3" height="2"/>
<rect x="15.7" y="19" width="6.3" height="2"/>
<path d="M25,34c-6.1,0-11-4.8-11-10.7V10.7C14,4.8,18.9,0,25,0s11,4.8,11,10.7v12.5C36,29.2,31.1,34,25,34z M25,2c-5,0-9,3.9-9,8.7
	v12.5c0,4.8,4,8.7,9,8.7c5,0,9-3.9,9-8.7V10.7C34,5.9,30,2,25,2z"/>
<path d="M25,39c-8.8,0-16-7.2-16-16v-5h2v5c0,7.7,6.3,14,14,14s14-6.3,14-14v-5h2v5C41,31.8,33.8,39,25,39z"/>
<path d="M37.9,49.9H12v-1.5c0-1.9,1.6-3.5,3.5-3.5h18.9c1.9,0,3.5,1.6,3.5,3.5C37.9,48.5,37.9,49.9,37.9,49.9z M14.1,48h21.7
	c-0.2-0.6-0.8-1-1.4-1H15.5C14.9,47,14.3,47.4,14.1,48z"/>
</svg>
