<?xml version="1.0" encoding="utf-8"?>
<!-- Generator: Adobe Illustrator 23.0.3, SVG Export Plug-In . SVG Version: 6.00 Build 0)  -->
<svg version="1.1" id="Layer_1" xmlns="http://www.w3.org/2000/svg" xmlns:xlink="http://www.w3.org/1999/xlink" x="0px" y="0px"
	 viewBox="0 0 50 50" style="enable-background:new 0 0 50 50;" xml:space="preserve">
<line style="fill:none;stroke:#000000;stroke-width:2;stroke-linecap:round;stroke-linejoin:round;stroke-miterlimit:10;" x1="28.5" y1="12" x2="34.3" y2="12"/>
<line style="fill:none;stroke:#000000;stroke-width:2;stroke-linecap:round;stroke-linejoin:round;stroke-miterlimit:10;" x1="28.5" y1="16" x2="34.3" y2="16"/>
<line style="fill:none;stroke:#000000;stroke-width:2;stroke-linecap:round;stroke-linejoin:round;stroke-miterlimit:10;" x1="28.5" y1="20" x2="34.3" y2="20"/>
<line style="fill:none;stroke:#000000;stroke-width:2;stroke-linecap:round;stroke-linejoin:round;stroke-miterlimit:10;" x1="21.5" y1="12" x2="15.7" y2="12"/>
<line style="fill:none;stroke:#000000;stroke-width:2;stroke-linecap:round;stroke-linejoin:round;stroke-miterlimit:10;" x1="21.5" y1="16" x2="15.7" y2="16"/>
<line style="fill:none;stroke:#000000;stroke-width:2;stroke-linecap:round;stroke-linejoin:round;stroke-miterlimit:10;" x1="21.5" y1="20" x2="15.7" y2="20"/>
<g>
	<path d="M40.9,24.3c0-0.4,0.1-0.9,0.1-1.3v-5c0-0.6-0.4-1-1-1s-1,0.4-1,1v5c0,0.4,0,0.7-0.1,1C39.6,24.1,40.3,24.2,40.9,24.3z"/>
	<path d="M24.6,34c0.2-0.7,0.5-1.4,0.8-2c-0.1,0-0.3,0-0.4,0c-5,0-9-3.9-9-8.7V10.7C16,5.9,20,2,25,2s9,3.9,9,8.7v12.5
		c0,0.5,0,0.9-0.1,1.4c0.7-0.2,1.4-0.3,2.1-0.5c0-0.3,0-0.6,0-0.9V10.7C36,4.8,31.1,0,25,0S14,4.8,14,10.7v12.5
		C14,29.1,18.7,33.8,24.6,34z"/>
	<path d="M15.5,45c-1.9,0-3.5,1.6-3.5,3.5V50h18.8c-0.9-0.6-1.8-1.2-2.6-2H14.1c0.2-0.6,0.8-1,1.4-1H23h4h0.3c-0.5-0.6-1-1.3-1.4-2
		H24v-6.1c0,0,0,0,0,0c0-0.3,0-0.6,0-1c0-0.4,0-0.7,0.1-1C16.8,36.5,11,30.4,11,23v-5c0-0.6-0.4-1-1-1s-1,0.4-1,1v5
		c0,7.8,5.6,14.3,13,15.7V45H15.5z"/>
</g>
<circle style="fill:none;stroke:#000000;stroke-width:2;stroke-linecap:round;stroke-linejoin:round;stroke-miterlimit:10;" cx="38" cy="38" r="11"/>
<line style="fill:none;stroke:#000000;stroke-width:2;stroke-linecap:round;stroke-linejoin:round;stroke-miterlimit:10;" x1="30.3" y1="45.8" x2="45.8" y2="30.3"/>
</svg>
